<svg width="27" height="25" viewBox="0 0 27 25" fill="none" xmlns="http://www.w3.org/2000/svg">
<path d="M13.5 25L9.19077 21.0417C7.57481 19.537 6.1889 18.1944 5.03304 17.0139C3.87718 15.8333 2.92332 14.7222 2.17145 13.6806C1.41958 12.6389 0.869701 11.6319 0.52182 10.6597C0.17394 9.6875 0 8.66898 0 7.60417C0 5.42824 0.706983 3.6169 2.12095 2.17014C3.53491 0.72338 5.29676 0 7.40648 0C8.57357 0 9.68454 0.25463 10.7394 0.763889C11.7943 1.27315 12.7145 1.99074 13.5 2.91667C14.2855 1.99074 15.2057 1.27315 16.2606 0.763889C17.3155 0.25463 18.4264 0 19.5935 0C21.7032 0 23.4651 0.72338 24.8791 2.17014C26.293 3.6169 27 5.42824 27 7.60417C27 8.66898 26.8261 9.6875 26.4782 10.6597C26.1303 11.6319 25.5804 12.6389 24.8286 13.6806C24.0767 14.7222 23.1228 15.8333 21.967 17.0139C20.8111 18.1944 19.4252 19.537 17.8092 21.0417L13.5 25ZM3.09726 9.72222H23.9027C24.0374 9.35185 24.1384 8.99306 24.2057 8.64583C24.2731 8.29861 24.3067 7.95139 24.3067 7.60417C24.3067 6.21528 23.841 5.06366 22.9096 4.14931C21.9782 3.23495 20.8728 2.77778 19.5935 2.77778C18.5387 2.77778 17.568 3.09606 16.6814 3.73264C15.7949 4.36921 15.0037 5.20833 14.308 6.25H12.692C11.9963 5.20833 11.2051 4.36921 10.3186 3.73264C9.43204 3.09606 8.46135 2.77778 7.40648 2.77778C6.12718 2.77778 5.02182 3.23495 4.0904 4.14931C3.15898 5.06366 2.69327 6.21528 2.69327 7.60417C2.69327 7.95139 2.72693 8.29861 2.79426 8.64583C2.8616 8.99306 2.96259 9.35185 3.09726 9.72222ZM6.53117 14.5833H20.4688C20.8279 14.1898 21.1534 13.8252 21.4451 13.4896C21.7369 13.1539 22.0062 12.8241 22.2531 12.5H4.74688C4.99377 12.8241 5.26309 13.1539 5.55486 13.4896C5.84663 13.8252 6.17207 14.1898 6.53117 14.5833ZM13.5 21.25C14.308 20.5093 15.0655 19.8206 15.7724 19.184C16.4794 18.5475 17.1247 17.9398 17.7082 17.3611H9.29177C9.87531 17.9398 10.5206 18.5475 11.2276 19.184C11.9345 19.8206 12.692 20.5093 13.5 21.25Z" fill="black"/>
</svg>
