<svg width="440" height="958" viewBox="0 0 440 958" fill="none" xmlns="http://www.w3.org/2000/svg">
<g clip-path="url(#clip0_59_443)">
<rect width="440" height="958" fill="white"/>
<rect width="440" height="958" fill="url(#paint0_linear_59_443)"/>
<g filter="url(#filter0_f_59_443)">
<path d="M347.038 404.467C328.938 403.537 314.879 387.238 315.875 367.839C316.871 348.44 332.526 333.668 350.625 334.597C368.724 335.526 382.784 351.824 381.788 371.223C380.792 390.622 365.137 405.396 347.038 404.467Z" stroke="white" stroke-width="4"/>
<path d="M341.376 382.875C338.688 382.737 336.536 380.302 336.689 377.324C336.842 374.346 339.232 372.144 341.92 372.282C344.608 372.42 346.76 374.855 346.607 377.833C346.454 380.811 344.064 383.013 341.376 382.875Z" stroke="white" stroke-width="2"/>
<path d="M342.216 366.507C344.904 366.645 347.294 364.443 347.447 361.465C347.6 358.488 345.448 356.052 342.76 355.914C340.072 355.776 337.682 357.978 337.529 360.956C337.376 363.934 339.528 366.369 342.216 366.507Z" stroke="white" stroke-width="2"/>
<path d="M357.31 367.282C359.998 367.42 362.388 365.218 362.541 362.24C362.694 359.262 360.542 356.827 357.854 356.689C355.166 356.551 352.775 358.753 352.623 361.731C352.47 364.709 354.622 367.144 357.31 367.282Z" stroke="white" stroke-width="2"/>
<path d="M356.47 383.65C359.157 383.788 361.548 381.586 361.701 378.608C361.854 375.63 359.701 373.194 357.013 373.057C354.326 372.919 351.935 375.121 351.782 378.099C351.629 381.076 353.782 383.512 356.47 383.65Z" stroke="white" stroke-width="2"/>
<path d="M328.213 381.275C327.99 380.77 327.399 380.543 326.894 380.767C326.389 380.99 326.161 381.581 326.385 382.086L328.213 381.275ZM327.299 381.681L326.385 382.086C332.062 394.884 345.597 399.225 356.932 395.795C362.611 394.077 367.768 390.404 371.141 384.851C374.517 379.293 376.064 371.919 374.646 362.866L373.658 363.021L372.67 363.176C374.026 371.834 372.527 378.716 369.432 383.813C366.334 388.914 361.596 392.294 356.352 393.881C345.842 397.062 333.423 393.022 328.213 381.275L327.299 381.681Z" fill="white"/>
<path d="M324.862 369.071C324.878 369.634 324.454 370.116 323.914 370.147C323.374 370.179 322.923 369.748 322.907 369.184L324.862 369.071ZM323.884 369.127L322.907 369.184C322.489 355.009 332.825 344.603 344.474 342.164C350.316 340.941 356.538 341.703 361.967 345.011C367.403 348.324 371.972 354.146 374.582 362.906L373.647 363.231L372.713 363.557C370.225 355.205 365.925 349.815 360.95 346.783C355.967 343.747 350.235 343.032 344.812 344.167C333.928 346.446 324.48 356.101 324.862 369.071L323.884 369.127Z" fill="white"/>
<path d="M324.948 377.062C324.372 377.033 323.884 376.505 323.919 375.827C323.954 375.149 324.493 374.673 325.069 374.703C325.645 374.733 326.133 375.261 326.098 375.939C326.063 376.616 325.524 377.092 324.948 377.062Z" stroke="white"/>
<path d="M386.174 266.292C361.456 265.023 342.322 242.779 343.677 216.387C345.032 189.994 366.343 169.828 391.061 171.097C415.779 172.366 434.913 194.609 433.558 221.001C432.203 247.394 410.892 267.561 386.174 266.292Z" stroke="white" stroke-width="4"/>
<path d="M378.588 236.955C374.772 236.759 371.755 233.31 371.969 229.141C372.183 224.971 375.538 221.849 379.354 222.045C383.17 222.241 386.187 225.69 385.973 229.86C385.759 234.029 382.404 237.151 378.588 236.955Z" stroke="white" stroke-width="2"/>
<path d="M379.717 214.975C383.533 215.171 386.887 212.049 387.101 207.88C387.315 203.71 384.299 200.261 380.483 200.065C376.667 199.869 373.311 202.991 373.097 207.161C372.883 211.331 375.901 214.779 379.717 214.975Z" stroke="white" stroke-width="2"/>
<path d="M399.986 216.016C403.802 216.212 407.156 213.09 407.37 208.921C407.584 204.751 404.567 201.302 400.751 201.106C396.935 200.91 393.58 204.032 393.366 208.202C393.152 212.371 396.17 215.82 399.986 216.016Z" stroke="white" stroke-width="2"/>
<path d="M398.857 237.996C402.673 238.191 406.028 235.07 406.242 230.9C406.456 226.73 403.439 223.282 399.623 223.086C395.807 222.89 392.452 226.011 392.238 230.181C392.024 234.351 395.041 237.8 398.857 237.996Z" stroke="white" stroke-width="2"/>
<path d="M360.617 234.603C360.393 234.098 359.803 233.871 359.298 234.095C358.793 234.318 358.565 234.909 358.789 235.414L360.617 234.603ZM359.703 235.009L358.789 235.414C366.332 252.42 384.316 258.198 399.396 253.634C406.948 251.349 413.801 246.467 418.283 239.088C422.768 231.703 424.838 221.886 422.944 209.797L421.956 209.951L420.968 210.106C422.8 221.8 420.778 231.127 416.574 238.049C412.366 244.977 405.932 249.567 398.817 251.72C384.561 256.034 367.694 250.557 360.617 234.603L359.703 235.009Z" fill="white"/>
<path d="M356.094 218.094C356.111 218.658 355.687 219.14 355.147 219.171C354.607 219.203 354.156 218.771 354.139 218.208L356.094 218.094ZM355.117 218.151L354.139 218.208C353.585 199.379 367.312 185.535 382.824 182.287C390.598 180.66 398.869 181.675 406.082 186.071C413.303 190.471 419.393 198.215 422.876 209.908L421.942 210.234L421.007 210.559C417.645 199.274 411.825 191.961 405.065 187.842C398.298 183.718 390.517 182.75 383.162 184.29C368.416 187.378 355.576 200.471 356.094 218.094L355.117 218.151Z" fill="white"/>
<path d="M356.536 228.978C355.66 228.932 354.942 228.134 354.993 227.139C355.044 226.144 355.84 225.423 356.716 225.468C357.593 225.513 358.312 226.311 358.261 227.307C358.21 228.302 357.413 229.023 356.536 228.978Z" stroke="white"/>
<path d="M250.81 328.433C226.092 327.164 206.958 304.92 208.312 278.528C209.667 252.135 230.979 231.969 255.697 233.238C280.415 234.507 299.549 256.75 298.194 283.142C296.839 309.535 275.527 329.702 250.81 328.433Z" stroke="white" stroke-width="4"/>
<path d="M243.224 299.096C239.408 298.9 236.391 295.451 236.605 291.282C236.819 287.112 240.173 283.99 243.989 284.186C247.805 284.382 250.823 287.831 250.609 292.001C250.395 296.17 247.04 299.292 243.224 299.096Z" stroke="white" stroke-width="2"/>
<path d="M244.353 277.116C248.169 277.312 251.523 274.191 251.737 270.021C251.951 265.851 248.934 262.403 245.118 262.206C241.302 262.01 237.947 265.132 237.733 269.302C237.519 273.472 240.537 276.921 244.353 277.116Z" stroke="white" stroke-width="2"/>
<path d="M264.622 278.157C268.438 278.353 271.792 275.231 272.006 271.062C272.22 266.892 269.203 263.443 265.387 263.247C261.571 263.051 258.216 266.173 258.002 270.343C257.788 274.512 260.806 277.961 264.622 278.157Z" stroke="white" stroke-width="2"/>
<path d="M263.493 300.137C267.309 300.332 270.663 297.211 270.878 293.041C271.092 288.871 268.075 285.423 264.259 285.227C260.443 285.031 257.088 288.152 256.874 292.322C256.659 296.492 259.677 299.941 263.493 300.137Z" stroke="white" stroke-width="2"/>
<path d="M225.253 296.744C225.029 296.239 224.438 296.012 223.934 296.236C223.429 296.46 223.201 297.05 223.425 297.555L225.253 296.744ZM224.339 297.15L223.425 297.555C230.968 314.561 248.952 320.339 264.032 315.775C271.583 313.49 278.437 308.609 282.919 301.229C287.404 293.844 289.474 284.027 287.58 271.938L286.592 272.093L285.604 272.247C287.436 283.941 285.414 293.268 281.21 300.191C277.002 307.118 270.568 311.708 263.452 313.861C249.197 318.175 232.329 312.698 225.253 296.744L224.339 297.15Z" fill="white"/>
<path d="M220.73 280.235C220.747 280.799 220.323 281.281 219.783 281.312C219.243 281.344 218.792 280.912 218.775 280.349L220.73 280.235ZM219.753 280.292L218.775 280.349C218.221 261.52 231.948 247.676 247.46 244.428C255.234 242.801 263.504 243.816 270.718 248.212C277.939 252.612 284.029 260.356 287.512 272.049L286.578 272.375L285.643 272.7C282.281 261.415 276.461 254.102 269.701 249.983C262.934 245.859 255.153 244.891 247.798 246.431C233.052 249.519 220.212 262.612 220.73 280.235L219.753 280.292Z" fill="white"/>
<path d="M221.172 291.119C220.295 291.073 219.578 290.275 219.629 289.28C219.68 288.285 220.475 287.564 221.352 287.609C222.229 287.654 222.948 288.453 222.897 289.448C222.845 290.443 222.049 291.164 221.172 291.119Z" stroke="white"/>
<path d="M84.9032 263.841C60.1853 262.572 41.0511 240.329 42.406 213.937C43.761 187.544 65.0726 167.377 89.7905 168.646C114.508 169.915 133.643 192.159 132.288 218.551C130.933 244.944 109.621 265.11 84.9032 263.841Z" stroke="white" stroke-width="4"/>
<path d="M77.3174 234.505C73.5015 234.309 70.4845 230.86 70.6986 226.69C70.9127 222.521 74.267 219.399 78.0829 219.595C81.899 219.791 84.9167 223.24 84.7026 227.409C84.4886 231.579 81.1335 234.701 77.3174 234.505Z" stroke="white" stroke-width="2"/>
<path d="M78.4465 212.525C82.2624 212.721 85.6167 209.599 85.8308 205.43C86.0448 201.26 83.0279 197.811 79.212 197.615C75.3959 197.419 72.0408 200.541 71.8267 204.711C71.6127 208.88 74.6304 212.329 78.4465 212.525Z" stroke="white" stroke-width="2"/>
<path d="M98.7152 213.566C102.531 213.762 105.885 210.64 106.099 206.47C106.314 202.301 103.297 198.852 99.4807 198.656C95.6646 198.46 92.3096 201.582 92.0955 205.751C91.8814 209.921 94.8992 213.37 98.7152 213.566Z" stroke="white" stroke-width="2"/>
<path d="M97.5868 235.545C101.403 235.741 104.757 232.62 104.971 228.45C105.185 224.28 102.168 220.831 98.3523 220.635C94.5362 220.439 91.1811 223.561 90.9671 227.731C90.753 231.901 93.7707 235.349 97.5868 235.545Z" stroke="white" stroke-width="2"/>
<path d="M59.3466 232.153C59.1227 231.648 58.5319 231.42 58.0271 231.644C57.5222 231.868 57.2945 232.459 57.5184 232.964L59.3466 232.153ZM58.4325 232.558L57.5184 232.964C65.0612 249.97 83.0458 255.747 98.1252 251.184C105.677 248.899 112.531 244.017 117.013 236.637C121.498 229.253 123.567 219.435 121.673 207.346L120.686 207.501L119.698 207.656C121.53 219.35 119.508 228.676 115.303 235.599C111.096 242.527 104.662 247.117 97.5459 249.27C83.2907 253.584 66.4229 248.107 59.3466 232.153L58.4325 232.558Z" fill="white"/>
<path d="M54.8238 215.644C54.8403 216.208 54.4162 216.69 53.8763 216.721C53.3365 216.752 52.8854 216.321 52.8688 215.758L54.8238 215.644ZM53.8463 215.701L52.8688 215.758C52.3147 196.929 66.0416 183.085 81.5533 179.837C89.3272 178.209 97.598 179.225 104.811 183.62C112.032 188.021 118.122 195.765 121.606 207.458L120.671 207.783L119.737 208.109C116.375 196.824 110.554 189.511 103.795 185.392C97.0272 181.268 89.2463 180.3 81.8913 181.84C67.1451 184.927 54.3051 198.021 54.8238 215.644L53.8463 215.701Z" fill="white"/>
<path d="M55.2656 226.527C54.3889 226.482 53.6713 225.684 53.7221 224.689C53.7732 223.694 54.569 222.972 55.4458 223.017C56.3228 223.062 57.0414 223.861 56.9903 224.857C56.9389 225.852 56.1425 226.572 55.2656 226.527Z" stroke="white"/>
<path d="M127.608 407.22C102.89 405.951 83.7559 383.707 85.1108 357.315C86.4658 330.922 107.777 310.756 132.495 312.025C157.213 313.294 176.347 335.537 174.992 361.929C173.637 388.322 152.326 408.489 127.608 407.22Z" stroke="white" stroke-width="4"/>
<path d="M120.022 377.883C116.206 377.687 113.189 374.238 113.403 370.069C113.617 365.899 116.972 362.777 120.788 362.973C124.604 363.169 127.622 366.618 127.407 370.787C127.193 374.957 123.838 378.079 120.022 377.883Z" stroke="white" stroke-width="2"/>
<path d="M121.151 355.903C124.967 356.099 128.321 352.977 128.536 348.808C128.75 344.638 125.733 341.189 121.917 340.993C118.101 340.797 114.746 343.919 114.532 348.089C114.317 352.259 117.335 355.707 121.151 355.903Z" stroke="white" stroke-width="2"/>
<path d="M141.42 356.944C145.236 357.14 148.59 354.018 148.804 349.849C149.018 345.679 146.001 342.23 142.186 342.034C138.369 341.838 135.014 344.96 134.8 349.13C134.586 353.299 137.604 356.748 141.42 356.944Z" stroke="white" stroke-width="2"/>
<path d="M140.292 378.924C144.108 379.119 147.462 375.998 147.676 371.828C147.89 367.658 144.873 364.21 141.057 364.014C137.241 363.818 133.886 366.939 133.672 371.109C133.458 375.279 136.476 378.728 140.292 378.924Z" stroke="white" stroke-width="2"/>
<path d="M102.051 375.531C101.828 375.026 101.237 374.799 100.732 375.022C100.227 375.246 99.9993 375.837 100.223 376.342L102.051 375.531ZM101.137 375.937L100.223 376.342C107.766 393.348 125.751 399.126 140.83 394.562C148.382 392.277 155.235 387.395 159.717 380.016C164.203 372.631 166.272 362.814 164.378 350.725L163.39 350.879L162.402 351.034C164.234 362.728 162.213 372.054 158.008 378.977C153.801 385.905 147.366 390.495 140.251 392.648C125.995 396.962 109.128 391.485 102.051 375.531L101.137 375.937Z" fill="white"/>
<path d="M97.5286 359.022C97.5451 359.586 97.121 360.068 96.5811 360.099C96.0413 360.131 95.5902 359.699 95.5736 359.136L97.5286 359.022ZM96.5511 359.079L95.5736 359.136C95.0195 340.307 108.746 326.463 124.258 323.215C132.032 321.587 140.303 322.603 147.516 326.999C154.737 331.399 160.827 339.143 164.31 350.836L163.376 351.161L162.441 351.487C159.079 340.202 153.259 332.889 146.499 328.77C139.732 324.646 131.951 323.678 124.596 325.218C109.85 328.305 97.0099 341.399 97.5286 359.022L96.5511 359.079Z" fill="white"/>
<path d="M97.9705 369.906C97.0938 369.86 96.3761 369.062 96.427 368.067C96.4781 367.072 97.2738 366.351 98.1507 366.395C99.0277 366.441 99.7462 367.239 99.6951 368.235C99.6438 369.23 98.8473 369.951 97.9705 369.906Z" stroke="white"/>
<path d="M41.021 552.972C8.02968 551.278 -17.4476 521.603 -15.6438 486.469C-13.8398 451.335 14.5424 424.426 47.5336 426.12C80.5248 427.814 106.002 457.488 104.198 492.622C102.395 527.756 74.0123 554.665 41.021 552.972Z" stroke="white" stroke-width="4"/>
<path d="M31.0309 513.953C25.8048 513.685 21.706 508.97 21.9963 503.31C22.2869 497.65 26.8472 493.379 32.0734 493.647C37.2997 493.915 41.3985 498.631 41.1079 504.291C40.8171 509.951 36.2571 514.222 31.0309 513.953Z" stroke="white" stroke-width="2"/>
<path d="M32.5198 484.959C37.7459 485.227 42.3061 480.957 42.5968 475.297C42.8874 469.637 38.7885 464.921 33.5623 464.653C28.336 464.385 23.7758 468.656 23.4853 474.316C23.1949 479.976 27.2936 484.691 32.5198 484.959Z" stroke="white" stroke-width="2"/>
<path d="M59.2573 486.332C64.4834 486.6 69.0435 482.329 69.3343 476.67C69.6249 471.01 65.526 466.294 60.2998 466.025C55.0735 465.757 50.5133 470.029 50.2227 475.689C49.9324 481.348 54.0311 486.063 59.2573 486.332Z" stroke="white" stroke-width="2"/>
<path d="M57.7687 515.326C62.9948 515.594 67.555 511.324 67.8457 505.664C68.1363 500.004 64.0375 495.288 58.8112 495.02C53.5849 494.752 49.0247 499.023 48.7342 504.683C48.4438 510.343 52.5425 515.058 57.7687 515.326Z" stroke="white" stroke-width="2"/>
<path d="M7.04908 510.662C6.82516 510.157 6.23437 509.929 5.72952 510.153C5.22466 510.377 4.99693 510.968 5.22085 511.473L7.04908 510.662ZM6.13497 511.067L5.22085 511.473C15.0965 533.738 38.6426 541.312 58.4031 535.332C68.2953 532.338 77.2694 525.945 83.1381 516.282C89.0098 506.615 91.7323 493.742 89.2439 477.858L88.2559 478.013L87.268 478.168C89.6945 493.657 87.0199 506.038 81.4287 515.244C75.8346 524.455 67.28 530.556 57.8238 533.418C38.8875 539.148 16.4582 531.875 7.04908 510.662L6.13497 511.067Z" fill="white"/>
<path d="M1.06259 488.773C1.07916 489.337 0.654976 489.819 0.115134 489.85C-0.424708 489.881 -0.875776 489.45 -0.892355 488.887L1.06259 488.773ZM0.0851153 488.83L-0.892355 488.887C-1.61769 464.241 16.3486 446.098 36.6887 441.84C46.8768 439.707 57.709 441.038 67.1534 446.794C76.6053 452.553 84.5956 462.7 89.1714 478.06L88.237 478.385L87.3025 478.711C82.8482 463.759 75.1274 454.044 66.1366 448.565C57.1382 443.082 46.7959 441.797 37.0267 443.843C17.4522 447.941 0.372734 465.333 1.06259 488.773L0.0851153 488.83Z" fill="white"/>
<path d="M1.94951 503.271C0.696576 503.207 -0.31019 502.071 -0.23877 500.678C-0.167264 499.285 0.950577 498.258 2.20357 498.322C3.45663 498.387 4.46336 499.523 4.39185 500.916C4.32026 502.308 3.20252 503.335 1.94951 503.271Z" stroke="white"/>
<path d="M278.044 539.106C253.326 537.837 234.192 515.594 235.546 489.202C236.901 462.809 258.213 442.642 282.931 443.911C307.649 445.18 326.783 467.424 325.428 493.816C324.073 520.208 302.761 540.375 278.044 539.106Z" stroke="white" stroke-width="4"/>
<path d="M270.458 509.77C266.642 509.574 263.625 506.125 263.839 501.955C264.053 497.786 267.407 494.664 271.223 494.86C275.039 495.056 278.057 498.504 277.843 502.674C277.629 506.844 274.274 509.966 270.458 509.77Z" stroke="white" stroke-width="2"/>
<path d="M271.587 487.79C275.403 487.986 278.757 484.864 278.971 480.694C279.185 476.525 276.168 473.076 272.352 472.88C268.536 472.684 265.181 475.806 264.967 479.975C264.753 484.145 267.771 487.594 271.587 487.79Z" stroke="white" stroke-width="2"/>
<path d="M291.856 488.831C295.672 489.027 299.026 485.905 299.24 481.735C299.454 477.566 296.437 474.117 292.621 473.921C288.805 473.725 285.45 476.846 285.236 481.016C285.022 485.186 288.04 488.635 291.856 488.831Z" stroke="white" stroke-width="2"/>
<path d="M290.727 510.81C294.543 511.006 297.897 507.884 298.112 503.715C298.326 499.545 295.309 496.096 291.493 495.9C287.677 495.704 284.322 498.826 284.108 502.996C283.893 507.166 286.911 510.614 290.727 510.81Z" stroke="white" stroke-width="2"/>
<path d="M252.487 507.418C252.263 506.913 251.672 506.685 251.168 506.909C250.663 507.133 250.435 507.724 250.659 508.229L252.487 507.418ZM251.573 507.823L250.659 508.229C258.202 525.235 276.186 531.012 291.266 526.449C298.817 524.164 305.671 519.282 310.153 511.902C314.638 504.518 316.708 494.7 314.814 482.611L313.826 482.766L312.838 482.921C314.67 494.615 312.648 503.941 308.444 510.864C304.236 517.792 297.802 522.381 290.686 524.535C276.431 528.849 259.563 523.372 252.487 507.418L251.573 507.823Z" fill="white"/>
<path d="M247.964 490.909C247.981 491.472 247.557 491.954 247.017 491.986C246.477 492.017 246.026 491.586 246.009 491.023L247.964 490.909ZM246.987 490.966L246.009 491.023C245.455 472.194 259.182 458.349 274.694 455.102C282.468 453.474 290.738 454.49 297.952 458.885C305.173 463.286 311.263 471.029 314.746 482.723L313.812 483.048L312.877 483.374C309.515 472.088 303.695 464.776 296.935 460.657C290.168 456.533 282.387 455.565 275.032 457.105C260.286 460.192 247.446 473.285 247.964 490.909L246.987 490.966Z" fill="white"/>
<path d="M248.406 501.792C247.529 501.747 246.812 500.949 246.863 499.954C246.914 498.958 247.709 498.237 248.586 498.282C249.463 498.327 250.182 499.126 250.131 500.122C250.079 501.117 249.283 501.837 248.406 501.792Z" stroke="white"/>
</g>
<g filter="url(#filter1_f_59_443)">
<path d="M327.806 99.1993C313.409 88.1905 311.042 66.7959 322.841 51.3657C334.641 35.9357 355.908 32.6156 370.304 43.6244C384.7 54.6332 387.068 76.0271 375.269 91.4573C363.469 106.887 342.202 110.208 327.806 99.1993Z" stroke="white" stroke-width="4"/>
<path d="M335.357 78.1939C333.219 76.559 332.823 73.3329 334.634 70.9644C336.445 68.5959 339.662 68.1329 341.8 69.7678C343.938 71.4027 344.334 74.6288 342.523 76.9973C340.712 79.3658 337.495 79.8287 335.357 78.1939Z" stroke="white" stroke-width="2"/>
<path d="M345.312 65.1748C347.45 66.8097 350.668 66.3467 352.479 63.9782C354.29 61.6097 353.894 58.3836 351.756 56.7487C349.618 55.1139 346.401 55.5768 344.589 57.9453C342.778 60.3138 343.174 63.5399 345.312 65.1748Z" stroke="white" stroke-width="2"/>
<path d="M357.318 74.3556C359.456 75.9905 362.673 75.5275 364.484 73.159C366.296 70.7905 365.899 67.5644 363.762 65.9295C361.624 64.2946 358.406 64.7576 356.595 67.126C354.784 69.4945 355.18 72.7206 357.318 74.3556Z" stroke="white" stroke-width="2"/>
<path d="M347.362 87.3745C349.5 89.0094 352.718 88.5465 354.529 86.1779C356.34 83.8094 355.944 80.5833 353.806 78.9484C351.668 77.3136 348.451 77.7765 346.639 80.145C344.828 82.5135 345.224 85.7396 347.362 87.3745Z" stroke="white" stroke-width="2"/>
<path d="M325.41 69.4259C325.511 68.8829 325.153 68.3608 324.61 68.2598C324.067 68.1587 323.545 68.5169 323.444 69.0598L325.41 69.4259ZM324.427 69.2429L323.444 69.0598C320.881 82.8239 329.584 94.0627 340.87 97.6493C346.525 99.4464 352.855 99.3372 358.779 96.6674C364.708 93.9953 370.156 88.7918 374.11 80.5256L373.208 80.0941L372.306 79.6626C368.524 87.5683 363.393 92.394 357.957 94.844C352.516 97.2964 346.697 97.4023 341.476 95.7432C331.011 92.4174 323.058 82.0587 325.41 69.4259L324.427 69.2429Z" fill="white"/>
<path d="M329.554 57.4667C329.249 57.9406 328.626 58.098 328.163 57.8184C327.7 57.5388 327.572 56.928 327.878 56.4542L329.554 57.4667ZM328.716 56.9605L327.878 56.4542C335.556 44.5309 349.966 41.8011 360.95 46.3827C366.459 48.6807 371.157 52.83 373.761 58.6295C376.368 64.4372 376.841 71.8228 374.035 80.5217L373.08 80.2613L372.125 80.001C374.801 71.707 374.306 64.8296 371.92 59.5146C369.53 54.1915 365.209 50.3586 360.095 48.2254C349.833 43.9449 336.579 46.5575 329.554 57.4667L328.716 56.9605Z" fill="white"/>
<path d="M325.102 64.1044C324.644 63.754 324.541 63.0428 324.953 62.5039C325.365 61.9649 326.079 61.8774 326.537 62.2279C326.996 62.5783 327.098 63.2902 326.686 63.8291C326.274 64.3679 325.561 64.4547 325.102 64.1044Z" stroke="white"/>
<path d="M438.268 7.42736C418.607 -7.60724 415.42 -36.7744 431.473 -57.7671C447.526 -78.7598 476.509 -83.3258 496.17 -68.2912C515.831 -53.2565 519.018 -24.0895 502.965 -3.09673C486.912 17.8959 457.929 22.462 438.268 7.42736Z" stroke="white" stroke-width="4"/>
<path d="M435.131 -33.1614C435.232 -33.7044 434.874 -34.2265 434.331 -34.3276C433.788 -34.4287 433.266 -34.0705 433.165 -33.5275L435.131 -33.1614ZM434.148 -33.3445L433.165 -33.5275C429.759 -15.2383 441.317 -0.297001 456.332 4.47456C463.851 6.86414 472.265 6.71805 480.136 3.1702C488.013 -0.379945 495.275 -7.30275 500.555 -18.3414L499.653 -18.7729L498.751 -19.2043C493.644 -8.5263 486.699 -1.98133 479.314 1.34684C471.925 4.67731 464.023 4.82009 456.938 2.5685C442.744 -1.94228 431.936 -16.0034 435.131 -33.1614L434.148 -33.3445Z" fill="white"/>
<path d="M291.499 -17.9451C271.838 -32.9797 268.651 -62.1468 284.704 -83.1395C300.757 -104.132 329.74 -108.698 349.401 -93.6636C369.062 -78.629 372.249 -49.4619 356.196 -28.4692C340.143 -7.47656 311.159 -2.91047 291.499 -17.9451Z" stroke="white" stroke-width="4"/>
<path d="M145.337 -22.7109C125.676 -37.7455 122.489 -66.9127 138.542 -87.9054C154.595 -108.898 183.578 -113.464 203.239 -98.4295C222.9 -83.3948 226.087 -54.2278 210.034 -33.235C193.981 -12.2424 164.998 -7.67634 145.337 -22.7109Z" stroke="white" stroke-width="4"/>
<path d="M-8.53481 48.4544C-34.7763 28.3875 -38.9878 -10.4961 -17.6174 -38.442C3.75294 -66.3877 42.381 -72.5107 68.6224 -52.4439C94.8638 -32.377 99.0757 6.50588 77.7056 34.4518C56.3353 62.3977 17.7066 68.5213 -8.53481 48.4544Z" stroke="white" stroke-width="4"/>
<path d="M5.30991 10.632C1.15309 7.45311 0.442211 1.24604 3.88453 -3.25578C7.3271 -7.75762 13.5041 -8.6985 17.6612 -5.51973C21.8182 -2.34083 22.5286 3.8669 19.086 8.3688C15.6433 12.8704 9.46686 13.8108 5.30991 10.632Z" stroke="white" stroke-width="2"/>
<path d="M44.213 3.83302C48.37 7.01172 54.5465 6.07143 57.9891 1.56984C61.4316 -2.93201 60.7212 -9.13976 56.5643 -12.3187C52.4072 -15.4976 46.2303 -14.5566 42.7876 -10.0547C39.3453 -5.55286 40.0561 0.654188 44.213 3.83302Z" stroke="white" stroke-width="2"/>
<path d="M26.5773 26.8953C30.7342 30.074 36.9107 29.1337 40.3533 24.6321C43.7959 20.1303 43.0855 13.9225 38.9285 10.7436C34.7715 7.56467 28.5945 8.50563 25.1519 13.0075C21.7095 17.5094 22.4203 23.7164 26.5773 26.8953Z" stroke="white" stroke-width="2"/>
<path d="M-12.5992 -5.65375C-12.4981 -6.19671 -12.8564 -6.71881 -13.3993 -6.8199C-13.9423 -6.92099 -14.4644 -6.56278 -14.5654 -6.01983L-12.5992 -5.65375ZM-13.5823 -5.83679L-14.5654 -6.01983C-19.0238 17.9259 -3.897 37.4952 15.7788 43.748C25.6286 46.8782 36.6453 46.686 46.9523 42.0405C57.2644 37.3928 66.7937 28.3209 73.7312 13.8168L72.8291 13.3853L71.927 12.9539C65.1619 27.0973 55.9501 35.7914 46.1305 40.2172C36.3058 44.6453 25.8001 44.8341 16.3845 41.8419C-2.47063 35.8499 -16.8469 17.1607 -12.5992 -5.65375L-13.5823 -5.83679Z" fill="white"/>
<path d="M-5.1476 -27.088C-5.45274 -26.6141 -6.07532 -26.4567 -6.53817 -26.7363C-7.00102 -27.0159 -7.12888 -27.6267 -6.82375 -28.1005L-5.1476 -27.088ZM-5.98568 -27.5942L-6.82375 -28.1005C6.52592 -48.8306 31.6057 -53.6211 50.7853 -45.6212C60.3921 -41.6141 68.5692 -34.3859 73.0987 -24.2962C77.6318 -14.1984 78.4774 -1.31131 73.5575 13.9419L72.6028 13.6816L71.6481 13.4213C76.4374 -1.42709 75.5699 -13.806 71.2579 -23.4112C66.9423 -33.0245 59.1423 -39.9362 49.9305 -43.7785C31.4728 -51.4773 7.54908 -46.8041 -5.1476 -27.088L-5.98568 -27.5942Z" fill="white"/>
<path d="M194.728 171.159C175.067 156.124 171.879 126.957 187.932 105.965C203.986 84.9718 232.969 80.4059 252.63 95.4405C272.291 110.475 275.478 139.642 259.425 160.635C243.372 181.628 214.388 186.194 194.728 171.159Z" stroke="white" stroke-width="4"/>
<path d="M205.076 142.679C202.041 140.358 201.505 135.807 204.041 132.491C206.577 129.174 211.109 128.499 214.145 130.82C217.18 133.141 217.716 137.692 215.18 141.009C212.644 144.325 208.111 145 205.076 142.679Z" stroke="white" stroke-width="2"/>
<path d="M218.445 125.197C221.48 127.518 226.013 126.842 228.549 123.526C231.085 120.209 230.549 115.659 227.514 113.337C224.479 111.016 219.946 111.691 217.41 115.008C214.874 118.325 215.41 122.876 218.445 125.197Z" stroke="white" stroke-width="2"/>
<path d="M234.567 137.525C237.602 139.846 242.134 139.171 244.671 135.854C247.207 132.538 246.671 127.987 243.636 125.666C240.601 123.345 236.068 124.02 233.532 127.336C230.995 130.653 231.532 135.204 234.567 137.525Z" stroke="white" stroke-width="2"/>
<path d="M221.198 155.008C224.233 157.329 228.765 156.654 231.302 153.337C233.838 150.02 233.302 145.47 230.267 143.148C227.232 140.827 222.699 141.502 220.163 144.819C217.626 148.136 218.163 152.687 221.198 155.008Z" stroke="white" stroke-width="2"/>
<path d="M191.59 130.57C191.691 130.027 191.333 129.505 190.79 129.404C190.247 129.303 189.725 129.661 189.624 130.204L191.59 130.57ZM190.607 130.387L189.624 130.204C186.219 148.493 197.777 163.435 212.792 168.206C220.311 170.596 228.724 170.45 236.596 166.902C244.473 163.352 251.735 156.429 257.015 145.39L256.113 144.959L255.211 144.527C250.103 155.205 243.158 161.75 235.774 165.079C228.385 168.409 220.482 168.552 213.397 166.3C199.203 161.789 188.396 147.728 191.59 130.57L190.607 130.387Z" fill="white"/>
<path d="M197.204 114.4C196.899 114.874 196.276 115.031 195.814 114.752C195.351 114.472 195.223 113.861 195.528 113.387L197.204 114.4ZM196.366 113.894L195.528 113.387C205.727 97.5499 224.879 93.9043 239.505 100.005C246.836 103.063 253.08 108.58 256.54 116.287C260.003 124.001 260.641 133.832 256.896 145.444L255.941 145.183L254.986 144.923C258.601 133.716 257.941 124.393 254.699 117.172C251.453 109.942 245.586 104.741 238.651 101.848C224.746 96.048 206.75 99.5765 197.204 114.4L196.366 113.894Z" fill="white"/>
<path d="M191.409 123.623C190.712 123.089 190.572 122.025 191.177 121.234C191.783 120.442 192.847 120.298 193.544 120.831C194.242 121.364 194.382 122.43 193.777 123.221C193.171 124.013 192.107 124.156 191.409 123.623Z" stroke="white"/>
</g>
<g filter="url(#filter2_f_59_443)">
<path d="M92 714C110.123 714 125 729.557 125 748.981C125 768.406 110.123 783.962 92 783.962C73.877 783.962 59.0002 768.406 59 748.981C59 729.557 73.8769 714 92 714Z" stroke="white" stroke-width="4"/>
<path d="M98.7614 735.273C101.453 735.273 103.727 737.595 103.727 740.576C103.727 743.558 101.453 745.88 98.7614 745.88C96.07 745.88 93.7956 743.558 93.7955 740.576C93.7955 737.595 96.07 735.273 98.7614 735.273Z" stroke="white" stroke-width="2"/>
<path d="M98.7616 751.662C96.0701 751.662 93.7957 753.984 93.7957 756.966C93.7958 759.947 96.0702 762.27 98.7616 762.27C101.453 762.269 103.727 759.947 103.727 756.966C103.727 753.984 101.453 751.662 98.7616 751.662Z" stroke="white" stroke-width="2"/>
<path d="M83.6479 751.662C80.9565 751.662 78.6821 753.984 78.6821 756.966C78.6822 759.947 80.9565 762.27 83.6479 762.27C86.3393 762.269 88.6137 759.947 88.6137 756.966C88.6137 753.984 86.3393 751.662 83.6479 751.662Z" stroke="white" stroke-width="2"/>
<path d="M83.6479 735.273C80.9565 735.273 78.6821 737.595 78.6821 740.576C78.6822 743.558 80.9565 745.88 83.6479 745.88C86.3393 745.88 88.6137 743.558 88.6137 740.576C88.6137 737.595 86.3393 735.273 83.6479 735.273Z" stroke="white" stroke-width="2"/>
<path d="M111.989 736.196C112.238 736.688 112.84 736.885 113.332 736.636C113.825 736.386 114.022 735.785 113.773 735.292L111.989 736.196ZM112.881 735.744L113.773 735.292C107.448 722.802 93.7074 719.16 82.5637 723.167C76.98 725.175 72.0177 729.107 68.9341 734.826C65.8478 740.55 64.6806 747.993 66.5611 756.961L67.5398 756.756L68.5185 756.551C66.72 747.974 67.8646 741.023 70.6945 735.775C73.527 730.522 78.0854 726.903 83.2403 725.049C93.5738 721.334 106.183 724.732 111.989 736.196L112.881 735.744Z" fill="white"/>
<path d="M115.962 748.212C115.916 747.651 116.315 747.147 116.853 747.088C117.39 747.029 117.863 747.437 117.908 747.999L115.962 748.212ZM116.935 748.106L117.908 747.999C119.052 762.134 109.264 773.056 97.7549 776.089C91.9827 777.61 85.7302 777.168 80.1392 774.142C74.5403 771.113 69.6785 765.533 66.6232 756.919L67.5397 756.545L68.4562 756.172C71.3693 764.386 75.9398 769.549 81.0637 772.321C86.1955 775.098 91.9564 775.518 97.3146 774.106C108.067 771.272 117.008 761.146 115.962 748.212L116.935 748.106Z" fill="white"/>
<path d="M115.466 740.236C116.043 740.236 116.556 740.738 116.557 741.417C116.557 742.095 116.043 742.598 115.466 742.598C114.889 742.598 114.375 742.095 114.375 741.417C114.375 740.738 114.889 740.236 115.466 740.236Z" stroke="white"/>
<path d="M60 854C84.7504 854 105 875.233 105 901.66C105 928.087 84.7505 949.32 60 949.32C35.2495 949.32 15 928.087 15 901.66C15.0001 875.233 35.2496 854 60 854Z" stroke="white" stroke-width="4"/>
<path d="M69.08 882.909C72.9009 882.909 76.0907 886.199 76.0907 890.374C76.0907 894.549 72.9009 897.839 69.08 897.839C65.2589 897.839 62.0682 894.549 62.0682 890.374C62.0682 886.199 65.2589 882.909 69.08 882.909Z" stroke="white" stroke-width="2"/>
<path d="M69.0793 904.918C65.2583 904.918 62.0685 908.207 62.0685 912.383C62.0685 916.558 65.2583 919.847 69.0793 919.847C72.9004 919.847 76.091 916.558 76.091 912.383C76.091 908.207 72.9004 904.918 69.0793 904.918Z" stroke="white" stroke-width="2"/>
<path d="M48.7838 904.918C44.9629 904.918 41.7731 908.207 41.7731 912.383C41.7731 916.558 44.9629 919.847 48.7838 919.847C52.6049 919.847 55.7955 916.558 55.7955 912.383C55.7955 908.207 52.6049 904.918 48.7838 904.918Z" stroke="white" stroke-width="2"/>
<path d="M48.7838 882.909C44.9629 882.909 41.7731 886.199 41.7731 890.374C41.7731 894.549 44.9629 897.839 48.7838 897.839C52.6049 897.839 55.7955 894.549 55.7955 890.374C55.7955 886.199 52.6049 882.909 48.7838 882.909Z" stroke="white" stroke-width="2"/>
<path d="M87.1477 884.336C87.3972 884.829 87.9989 885.026 88.4916 884.777C88.9843 884.527 89.1814 883.925 88.9319 883.433L87.1477 884.336ZM88.0398 883.885L88.9319 883.433C80.5271 866.836 62.2699 861.988 47.4443 867.318C40.0198 869.988 33.4254 875.215 29.3276 882.814C25.2271 890.419 23.6635 900.33 26.1747 912.306L27.1534 912.101L28.1322 911.895C25.703 900.311 27.2439 890.893 31.088 883.764C34.9347 876.629 41.1252 871.716 48.121 869.201C62.1363 864.162 79.2627 868.766 87.1477 884.336L88.0398 883.885Z" fill="white"/>
<path d="M92.511 900.591C92.4656 900.03 92.8645 899.526 93.402 899.467C93.9395 899.408 94.4121 899.816 94.4576 900.378L92.511 900.591ZM93.4843 900.485L94.4576 900.378C95.9764 919.154 82.9774 933.683 67.6526 937.722C59.9723 939.746 51.6604 939.156 44.2311 935.136C36.794 931.112 30.3153 923.69 26.2369 912.191L27.1533 911.818L28.0698 911.445C32.0061 922.543 38.1935 929.548 45.1557 933.315C52.1257 937.086 59.946 937.654 67.2123 935.739C81.7808 931.9 93.9326 918.165 92.511 900.591L93.4843 900.485Z" fill="white"/>
<path d="M91.5117 889.745C92.3896 889.746 93.1472 890.506 93.1475 891.502C93.1475 892.499 92.3897 893.26 91.5117 893.26C90.6336 893.26 89.875 892.499 89.875 891.502C89.8752 890.506 90.6337 889.745 91.5117 889.745Z" stroke="white"/>
<path d="M192 785C216.75 785 237 806.233 237 832.66C237 859.087 216.75 880.32 192 880.32C167.25 880.32 147 859.087 147 832.66C147 806.233 167.25 785 192 785Z" stroke="white" stroke-width="4"/>
<path d="M201.08 813.909C204.901 813.909 208.091 817.199 208.091 821.374C208.091 825.549 204.901 828.839 201.08 828.839C197.259 828.839 194.068 825.549 194.068 821.374C194.068 817.199 197.259 813.909 201.08 813.909Z" stroke="white" stroke-width="2"/>
<path d="M201.079 835.918C197.258 835.918 194.069 839.207 194.069 843.383C194.069 847.558 197.258 850.847 201.079 850.847C204.9 850.847 208.091 847.558 208.091 843.383C208.091 839.207 204.9 835.918 201.079 835.918Z" stroke="white" stroke-width="2"/>
<path d="M180.784 835.918C176.963 835.918 173.773 839.207 173.773 843.383C173.773 847.558 176.963 850.847 180.784 850.847C184.605 850.847 187.796 847.558 187.796 843.383C187.796 839.207 184.605 835.918 180.784 835.918Z" stroke="white" stroke-width="2"/>
<path d="M180.784 813.909C176.963 813.909 173.773 817.199 173.773 821.374C173.773 825.549 176.963 828.839 180.784 828.839C184.605 828.839 187.796 825.549 187.796 821.374C187.796 817.199 184.605 813.909 180.784 813.909Z" stroke="white" stroke-width="2"/>
<path d="M219.148 815.336C219.397 815.829 219.999 816.026 220.492 815.777C220.984 815.527 221.181 814.925 220.932 814.433L219.148 815.336ZM220.04 814.885L220.932 814.433C212.527 797.836 194.27 792.988 179.444 798.318C172.02 800.988 165.425 806.215 161.328 813.814C157.227 821.419 155.664 831.33 158.175 843.306L159.153 843.101L160.132 842.895C157.703 831.311 159.244 821.893 163.088 814.764C166.935 807.629 173.125 802.716 180.121 800.201C194.136 795.162 211.263 799.766 219.148 815.336L220.04 814.885Z" fill="white"/>
<path d="M224.511 831.591C224.466 831.03 224.864 830.526 225.402 830.467C225.94 830.408 226.412 830.816 226.458 831.378L224.511 831.591ZM225.484 831.485L226.458 831.378C227.976 850.154 214.977 864.683 199.653 868.722C191.972 870.746 183.66 870.156 176.231 866.136C168.794 862.112 162.315 854.69 158.237 843.191L159.153 842.818L160.07 842.445C164.006 853.543 170.194 860.548 177.156 864.315C184.126 868.086 191.946 868.654 199.212 866.739C213.781 862.9 225.933 849.165 224.511 831.591L225.484 831.485Z" fill="white"/>
<path d="M223.512 820.745C224.39 820.746 225.147 821.506 225.147 822.502C225.147 823.499 224.39 824.26 223.512 824.26C222.634 824.26 221.875 823.499 221.875 822.502C221.875 821.506 222.634 820.745 223.512 820.745Z" stroke="white"/>
<path d="M361 841C385.75 841 406 862.233 406 888.66C406 915.087 385.75 936.32 361 936.32C336.25 936.32 316 915.087 316 888.66C316 862.233 336.25 841 361 841Z" stroke="white" stroke-width="4"/>
<path d="M370.08 869.909C373.901 869.909 377.091 873.199 377.091 877.374C377.091 881.549 373.901 884.839 370.08 884.839C366.259 884.839 363.068 881.549 363.068 877.374C363.068 873.199 366.259 869.909 370.08 869.909Z" stroke="white" stroke-width="2"/>
<path d="M370.079 891.918C366.258 891.918 363.069 895.207 363.069 899.383C363.069 903.558 366.258 906.847 370.079 906.847C373.9 906.847 377.091 903.558 377.091 899.383C377.091 895.207 373.9 891.918 370.079 891.918Z" stroke="white" stroke-width="2"/>
<path d="M349.784 891.918C345.963 891.918 342.773 895.207 342.773 899.383C342.773 903.558 345.963 906.847 349.784 906.847C353.605 906.847 356.796 903.558 356.796 899.383C356.796 895.207 353.605 891.918 349.784 891.918Z" stroke="white" stroke-width="2"/>
<path d="M349.784 869.909C345.963 869.909 342.773 873.199 342.773 877.374C342.773 881.549 345.963 884.839 349.784 884.839C353.605 884.839 356.796 881.549 356.796 877.374C356.796 873.199 353.605 869.909 349.784 869.909Z" stroke="white" stroke-width="2"/>
<path d="M388.148 871.336C388.397 871.829 388.999 872.026 389.492 871.777C389.984 871.527 390.181 870.925 389.932 870.433L388.148 871.336ZM389.04 870.885L389.932 870.433C381.527 853.836 363.27 848.988 348.444 854.318C341.02 856.988 334.425 862.215 330.328 869.814C326.227 877.419 324.664 887.33 327.175 899.306L328.153 899.101L329.132 898.895C326.703 887.311 328.244 877.893 332.088 870.764C335.935 863.629 342.125 858.716 349.121 856.201C363.136 851.162 380.263 855.766 388.148 871.336L389.04 870.885Z" fill="white"/>
<path d="M393.511 887.591C393.466 887.03 393.864 886.526 394.402 886.467C394.94 886.408 395.412 886.816 395.458 887.378L393.511 887.591ZM394.484 887.485L395.458 887.378C396.976 906.154 383.977 920.683 368.653 924.722C360.972 926.746 352.66 926.156 345.231 922.136C337.794 918.112 331.315 910.69 327.237 899.191L328.153 898.818L329.07 898.445C333.006 909.543 339.194 916.548 346.156 920.315C353.126 924.086 360.946 924.654 368.212 922.739C382.781 918.9 394.933 905.165 393.511 887.591L394.484 887.485Z" fill="white"/>
<path d="M392.512 876.745C393.39 876.746 394.147 877.506 394.147 878.502C394.147 879.499 393.39 880.26 392.512 880.26C391.634 880.26 390.875 879.499 390.875 878.502C390.875 877.506 391.634 876.745 392.512 876.745Z" stroke="white"/>
<path d="M311 700C335.75 700 356 721.233 356 747.66C356 774.087 335.75 795.32 311 795.32C286.25 795.32 266 774.087 266 747.66C266 721.233 286.25 700 311 700Z" stroke="white" stroke-width="4"/>
<path d="M320.08 728.909C323.901 728.909 327.091 732.199 327.091 736.374C327.091 740.549 323.901 743.839 320.08 743.839C316.259 743.839 313.068 740.549 313.068 736.374C313.068 732.199 316.259 728.909 320.08 728.909Z" stroke="white" stroke-width="2"/>
<path d="M320.079 750.918C316.258 750.918 313.069 754.207 313.069 758.383C313.069 762.558 316.258 765.847 320.079 765.847C323.9 765.847 327.091 762.558 327.091 758.383C327.091 754.207 323.9 750.918 320.079 750.918Z" stroke="white" stroke-width="2"/>
<path d="M299.784 750.918C295.963 750.918 292.773 754.207 292.773 758.383C292.773 762.558 295.963 765.847 299.784 765.847C303.605 765.847 306.796 762.558 306.796 758.383C306.796 754.207 303.605 750.918 299.784 750.918Z" stroke="white" stroke-width="2"/>
<path d="M299.784 728.909C295.963 728.909 292.773 732.199 292.773 736.374C292.773 740.549 295.963 743.839 299.784 743.839C303.605 743.839 306.796 740.549 306.796 736.374C306.796 732.199 303.605 728.909 299.784 728.909Z" stroke="white" stroke-width="2"/>
<path d="M338.148 730.336C338.397 730.829 338.999 731.026 339.492 730.777C339.984 730.527 340.181 729.925 339.932 729.433L338.148 730.336ZM339.04 729.885L339.932 729.433C331.527 712.836 313.27 707.988 298.444 713.318C291.02 715.988 284.425 721.215 280.328 728.814C276.227 736.419 274.664 746.33 277.175 758.306L278.153 758.101L279.132 757.895C276.703 746.311 278.244 736.893 282.088 729.764C285.935 722.629 292.125 717.716 299.121 715.201C313.136 710.162 330.263 714.766 338.148 730.336L339.04 729.885Z" fill="white"/>
<path d="M343.511 746.591C343.466 746.03 343.864 745.526 344.402 745.467C344.94 745.408 345.412 745.816 345.458 746.378L343.511 746.591ZM344.484 746.485L345.458 746.378C346.976 765.154 333.977 779.683 318.653 783.722C310.972 785.746 302.66 785.156 295.231 781.136C287.794 777.112 281.315 769.69 277.237 758.191L278.153 757.818L279.07 757.445C283.006 768.543 289.194 775.548 296.156 779.315C303.126 783.086 310.946 783.654 318.212 781.739C332.781 777.9 344.933 764.165 343.511 746.591L344.484 746.485Z" fill="white"/>
<path d="M342.512 735.745C343.39 735.746 344.147 736.506 344.147 737.502C344.147 738.499 343.39 739.26 342.512 739.26C341.634 739.26 340.875 738.499 340.875 737.502C340.875 736.506 341.634 735.745 342.512 735.745Z" stroke="white"/>
<path d="M390 550C423.035 550 450 578.329 450 613.51C450 648.69 423.035 677.019 390 677.019C356.965 677.019 330 648.69 330 613.51C330 578.329 356.965 550 390 550Z" stroke="white" stroke-width="4"/>
<path d="M401.978 588.455C407.211 588.455 411.546 592.954 411.546 598.621C411.546 604.288 407.211 608.787 401.978 608.788C396.744 608.788 392.409 604.288 392.409 598.621C392.409 592.953 396.744 588.455 401.978 588.455Z" stroke="white" stroke-width="2"/>
<path d="M401.977 617.487C396.744 617.487 392.409 621.986 392.409 627.653C392.409 633.32 396.744 637.82 401.977 637.82C407.21 637.82 411.546 633.32 411.546 627.653C411.545 621.986 407.21 617.487 401.977 617.487Z" stroke="white" stroke-width="2"/>
<path d="M375.204 617.487C369.971 617.487 365.636 621.986 365.636 627.653C365.636 633.32 369.971 637.82 375.204 637.82C380.438 637.82 384.773 633.32 384.773 627.653C384.773 621.986 380.438 617.487 375.204 617.487Z" stroke="white" stroke-width="2"/>
<path d="M375.204 588.455C369.971 588.455 365.636 592.954 365.636 598.621C365.636 604.288 369.971 608.787 375.204 608.788C380.438 608.788 384.773 604.288 384.773 598.621C384.773 592.953 380.438 588.455 375.204 588.455Z" stroke="white" stroke-width="2"/>
<path d="M426.097 590.512C426.346 591.005 426.948 591.202 427.44 590.953C427.933 590.703 428.13 590.101 427.881 589.609L426.097 590.512ZM426.989 590.061L427.881 589.609C416.877 567.879 392.973 561.523 373.545 568.508C363.819 572.005 355.185 578.849 349.819 588.8C344.451 598.756 342.392 611.751 345.692 627.487L346.671 627.282L347.649 627.077C344.432 611.732 346.468 599.23 351.58 589.75C356.694 580.264 364.925 573.732 374.222 570.39C392.839 563.696 415.612 569.809 426.097 590.512L426.989 590.061Z" fill="white"/>
<path d="M433.197 612.065C433.152 611.504 433.551 611 434.088 610.941C434.626 610.882 435.099 611.29 435.144 611.852L433.197 612.065ZM434.171 611.958L435.144 611.852C437.132 636.428 420.12 655.468 400.025 660.764C389.959 663.416 379.073 662.642 369.346 657.378C359.611 652.111 351.111 642.387 345.754 627.282L346.67 626.909L347.587 626.536C352.802 641.24 361.011 650.546 370.271 655.557C379.538 660.572 389.933 661.324 399.584 658.781C418.923 653.684 435.088 635.44 433.197 612.065L434.171 611.958Z" fill="white"/>
<path d="M431.568 597.632C432.823 597.632 433.887 598.715 433.887 600.11C433.887 601.504 432.823 602.587 431.568 602.587C430.314 602.587 429.25 601.504 429.25 600.11C429.25 598.715 430.314 597.632 431.568 597.632Z" stroke="white"/>
<path d="M154 576C178.75 576 199 597.233 199 623.66C199 650.087 178.75 671.32 154 671.32C129.25 671.32 109 650.087 109 623.66C109 597.233 129.25 576 154 576Z" stroke="white" stroke-width="4"/>
<path d="M163.08 604.909C166.901 604.909 170.091 608.199 170.091 612.374C170.091 616.549 166.901 619.839 163.08 619.839C159.259 619.839 156.068 616.549 156.068 612.374C156.068 608.199 159.259 604.909 163.08 604.909Z" stroke="white" stroke-width="2"/>
<path d="M163.079 626.918C159.258 626.918 156.069 630.207 156.069 634.383C156.069 638.558 159.258 641.847 163.079 641.847C166.9 641.847 170.091 638.558 170.091 634.383C170.091 630.207 166.9 626.918 163.079 626.918Z" stroke="white" stroke-width="2"/>
<path d="M142.784 626.918C138.963 626.918 135.773 630.207 135.773 634.383C135.773 638.558 138.963 641.847 142.784 641.847C146.605 641.847 149.796 638.558 149.796 634.383C149.796 630.207 146.605 626.918 142.784 626.918Z" stroke="white" stroke-width="2"/>
<path d="M142.784 604.909C138.963 604.909 135.773 608.199 135.773 612.374C135.773 616.549 138.963 619.839 142.784 619.839C146.605 619.839 149.796 616.549 149.796 612.374C149.796 608.199 146.605 604.909 142.784 604.909Z" stroke="white" stroke-width="2"/>
<path d="M181.148 606.336C181.397 606.829 181.999 607.026 182.492 606.777C182.984 606.527 183.181 605.925 182.932 605.433L181.148 606.336ZM182.04 605.885L182.932 605.433C174.527 588.836 156.27 583.988 141.444 589.318C134.02 591.988 127.425 597.215 123.328 604.814C119.227 612.419 117.664 622.33 120.175 634.306L121.153 634.101L122.132 633.895C119.703 622.311 121.244 612.893 125.088 605.764C128.935 598.629 135.125 593.716 142.121 591.201C156.136 586.162 173.263 590.766 181.148 606.336L182.04 605.885Z" fill="white"/>
<path d="M186.511 622.591C186.466 622.03 186.864 621.526 187.402 621.467C187.94 621.408 188.412 621.816 188.458 622.378L186.511 622.591ZM187.484 622.485L188.458 622.378C189.976 641.154 176.977 655.683 161.653 659.722C153.972 661.746 145.66 661.156 138.231 657.136C130.794 653.112 124.315 645.69 120.237 634.191L121.153 633.818L122.07 633.445C126.006 644.543 132.194 651.548 139.156 655.315C146.126 659.086 153.946 659.654 161.212 657.739C175.781 653.9 187.933 640.165 186.511 622.591L187.484 622.485Z" fill="white"/>
<path d="M185.512 611.745C186.39 611.746 187.147 612.506 187.147 613.502C187.147 614.499 186.39 615.26 185.512 615.26C184.634 615.26 183.875 614.499 183.875 613.502C183.875 612.506 184.634 611.745 185.512 611.745Z" stroke="white"/>
</g>
</g>
<defs>
<filter id="filter0_f_59_443" x="-18.7338" y="165.589" width="455.36" height="390.459" filterUnits="userSpaceOnUse" color-interpolation-filters="sRGB">
<feFlood flood-opacity="0" result="BackgroundImageFix"/>
<feBlend mode="normal" in="SourceGraphic" in2="BackgroundImageFix" result="shape"/>
<feGaussianBlur stdDeviation="0.5" result="effect1_foregroundBlur_59_443"/>
</filter>
<filter id="filter1_f_59_443" x="-34.2758" y="-252.647" width="550.495" height="435.645" filterUnits="userSpaceOnUse" color-interpolation-filters="sRGB">
<feFlood flood-opacity="0" result="BackgroundImageFix"/>
<feBlend mode="normal" in="SourceGraphic" in2="BackgroundImageFix" result="shape"/>
<feGaussianBlur stdDeviation="0.5" result="effect1_foregroundBlur_59_443"/>
</filter>
<filter id="filter2_f_59_443" x="12" y="547" width="441" height="405.321" filterUnits="userSpaceOnUse" color-interpolation-filters="sRGB">
<feFlood flood-opacity="0" result="BackgroundImageFix"/>
<feBlend mode="normal" in="SourceGraphic" in2="BackgroundImageFix" result="shape"/>
<feGaussianBlur stdDeviation="0.5" result="effect1_foregroundBlur_59_443"/>
</filter>
<linearGradient id="paint0_linear_59_443" x1="0" y1="0" x2="440.974" y2="957.552" gradientUnits="userSpaceOnUse">
<stop stop-color="#F9E2D5"/>
<stop offset="1" stop-color="#FFB78E"/>
</linearGradient>
<clipPath id="clip0_59_443">
<rect width="440" height="958" fill="white"/>
</clipPath>
</defs>
</svg>
