<svg width="28" height="29" viewBox="0 0 28 29" fill="none" xmlns="http://www.w3.org/2000/svg">
<path d="M9.57895 17.4H12.5263V10.15H9.57895V17.4ZM3.68421 15.225C2.55439 14.6692 1.65789 13.8656 0.994737 12.8144C0.331579 11.7631 0 10.6213 0 9.38875C0 7.57625 0.632456 6.04167 1.89737 4.785C3.16228 3.52833 4.71579 2.9 6.55789 2.9C6.85263 2.9 7.15351 2.92417 7.46053 2.9725C7.76754 3.02083 8.06842 3.08125 8.36316 3.15375C8.97719 2.16292 9.77544 1.38958 10.7579 0.83375C11.7404 0.277917 12.8211 0 14 0C15.1789 0 16.2596 0.277917 17.2421 0.83375C18.2246 1.38958 19.0228 2.16292 19.6368 3.15375C19.9316 3.08125 20.2263 3.02083 20.5211 2.9725C20.8158 2.92417 21.1228 2.9 21.4421 2.9C23.2842 2.9 24.8377 3.52833 26.1026 4.785C27.3675 6.04167 28 7.57625 28 9.38875C28 10.6213 27.6684 11.7631 27.0053 12.8144C26.3421 13.8656 25.4456 14.6692 24.3158 15.225V23.2H3.68421V15.225ZM15.4737 17.4H18.4211V10.15H15.4737V17.4ZM6.63158 20.3H21.3684V13.4487L22.9895 12.6512C23.6281 12.3371 24.1316 11.896 24.5 11.3281C24.8684 10.7602 25.0526 10.1258 25.0526 9.425C25.0526 8.41 24.7026 7.55208 24.0026 6.85125C23.3026 6.15042 22.4491 5.8 21.4421 5.8C21.1719 5.8 20.9263 5.82417 20.7053 5.8725C20.4842 5.92083 20.2509 5.98125 20.0053 6.05375L18.2737 6.525L17.1316 4.64C16.7877 4.08417 16.3395 3.65521 15.7868 3.35312C15.2342 3.05104 14.6386 2.9 14 2.9C13.3614 2.9 12.7658 3.05104 12.2132 3.35312C11.6605 3.65521 11.2123 4.08417 10.8684 4.64L9.72632 6.525L7.95789 6.05375C7.71228 6.00542 7.47281 5.95104 7.23947 5.89062C7.00614 5.83021 6.76667 5.8 6.52105 5.8C5.51403 5.8 4.66667 6.15042 3.97895 6.85125C3.29123 7.55208 2.94737 8.41 2.94737 9.425C2.94737 10.1258 3.13158 10.7602 3.5 11.3281C3.86842 11.896 4.37193 12.3371 5.01053 12.6512L6.63158 13.4487V20.3ZM3.68421 23.2H6.63158V26.1H21.3684V23.2H24.3158V29H3.68421V23.2Z" fill="#030303"/>
</svg>
