<svg width="35" height="30" viewBox="0 0 35 30" fill="none" xmlns="http://www.w3.org/2000/svg">
<path d="M7.4841 13.25L5.81479 14.1667C5.42528 14.3889 5.00795 14.4444 4.5628 14.3333C4.11765 14.2222 3.78378 13.9722 3.56121 13.5833L0.222576 7.75C0 7.36111 -0.0556439 6.94444 0.0556439 6.5C0.166932 6.05556 0.417329 5.72222 0.806836 5.5L10.4054 0H13.3267C13.5771 0 13.7788 0.0763889 13.9318 0.229167C14.0849 0.381944 14.1614 0.583333 14.1614 0.833333V1.66667C14.1614 2.58333 14.4883 3.36806 15.1421 4.02083C15.7959 4.67361 16.5819 5 17.5 5C18.4181 5 19.2041 4.67361 19.8579 4.02083C20.5117 3.36806 20.8386 2.58333 20.8386 1.66667V0.833333C20.8386 0.583333 20.9151 0.381944 21.0682 0.229167C21.2212 0.0763889 21.4229 0 21.6733 0H24.5946L34.1932 5.5C34.5827 5.72222 34.8331 6.05556 34.9444 6.5C35.0556 6.94444 35 7.36111 34.7774 7.75L31.4388 13.5833C31.2162 13.9722 30.8893 14.2153 30.4581 14.3125C30.0268 14.4097 29.6025 14.3472 29.1852 14.125L27.5159 13.2917V28.3333C27.5159 28.8056 27.3559 29.2014 27.036 29.5208C26.716 29.8403 26.3196 30 25.8466 30H9.15342C8.68044 30 8.28398 29.8403 7.96403 29.5208C7.64408 29.2014 7.4841 28.8056 7.4841 28.3333V13.25ZM10.8227 7.66667V26.6667H24.1773V7.66667L29.3521 10.5L31.1049 7.58333L23.9269 3.41667C23.5095 4.83333 22.7236 6.00694 21.569 6.9375C20.4143 7.86806 19.058 8.33333 17.5 8.33333C15.942 8.33333 14.5857 7.86806 13.431 6.9375C12.2764 6.00694 11.4905 4.83333 11.0731 3.41667L3.89507 7.58333L5.64785 10.5L10.8227 7.66667Z" fill="#111111"/>
</svg>
