<svg width="136" height="149" viewBox="0 0 136 149" fill="none" xmlns="http://www.w3.org/2000/svg">
<path d="M7.51397 122.948C7.51397 119.976 8.3672 117.168 10.0737 114.526C11.8352 111.829 14.1472 109.186 17.0096 106.599C19.8721 103.957 23.1474 101.287 26.8356 98.5898C30.5788 95.8925 34.4321 92.975 38.3955 89.8373C42.359 86.6996 46.2948 83.3142 50.2032 79.6811C54.1666 75.9929 57.7722 71.8643 61.02 67.2954C68.3964 57.0566 72.8277 45.6893 74.3139 33.1936C57.2493 34.7349 45.8545 36.3037 40.1295 37.9001C34.4046 39.4414 30.0834 41.258 27.1659 43.3498C24.3034 45.4416 22.8722 47.7811 22.8722 50.3683C22.8722 52.9556 23.0648 55.0749 23.4502 56.7263C23.8906 58.3227 24.3585 59.7814 24.8539 61.1026C25.3493 62.4237 25.7897 63.6072 26.175 64.6531C26.6154 65.699 26.8356 66.6348 26.8356 67.4606C26.8356 68.9468 24.964 70.5707 21.2208 72.3322C17.8078 73.9286 15.3032 74.7268 13.7068 74.7268C12.1655 74.7268 10.6792 74.1763 9.24796 73.0754C7.81673 71.9194 6.41302 70.4331 5.03683 68.6165C1.67894 64.1577 0 59.8365 0 55.6529C0 51.4693 1.0459 47.9187 3.1377 45.0012C5.2295 42.0837 8.03692 39.5515 11.5599 37.4047C15.138 35.2578 19.3216 33.4688 24.1107 32.0376C28.8999 30.6063 33.9917 29.3953 39.3864 28.4044C44.781 27.4136 50.3133 26.6154 55.9832 26.0099C61.7081 25.4044 67.2954 24.8814 72.7451 24.441C78.1948 23.9456 83.3417 23.4777 88.1859 23.0373C93.0851 22.5969 97.4063 22.074 101.15 21.4685C109.242 20.1473 113.508 18.3858 113.948 16.1839C114.388 13.982 114.994 11.9453 115.765 10.0737C116.535 8.14701 117.444 6.44054 118.489 4.95426C120.801 1.65142 123.306 0 126.003 0C128.701 0 130.903 1.34866 132.609 4.04598C134.261 6.63321 135.086 9.38558 135.086 12.3031C135.086 15.1656 134.426 17.45 133.105 19.1565C131.783 20.863 129.939 22.3768 127.572 23.6979C125.26 24.964 122.48 26.0649 119.233 27.0007C115.985 27.9365 112.462 28.7347 108.664 29.3953C102.663 30.4412 94.2961 31.4321 83.5619 32.3679C83.672 34.7899 83.727 37.1295 83.727 39.3864C83.727 41.5883 83.672 44.3407 83.5619 47.6435C83.5069 50.8913 83.2591 54.9648 82.8188 59.864C82.4334 64.7632 81.9105 69.6349 81.2499 74.4791C80.6444 79.3233 79.9563 83.8647 79.1856 88.1033C77.6443 96.9109 76.103 103.131 74.5617 106.764C73.0754 110.398 71.3139 113.893 69.2771 117.251C67.2404 120.609 64.9834 123.802 62.5063 126.829C60.0842 129.857 57.497 132.692 54.7446 135.334C51.9922 137.921 49.1848 140.178 46.3224 142.105C40.2672 146.233 34.7899 148.298 29.8907 148.298C25.0466 148.298 20.0923 145.518 15.0279 139.958C10.0186 134.453 7.51397 128.783 7.51397 122.948Z" fill="#FA9962"/>
</svg>
