<svg width="92" height="27" viewBox="0 0 92 27" fill="none" xmlns="http://www.w3.org/2000/svg">
<path d="M2.03906 18.1406C2.03906 17.7188 2.16016 17.3203 2.40234 16.9453C2.65234 16.5625 2.98047 16.1875 3.38672 15.8203C3.79297 15.4453 4.25781 15.0664 4.78125 14.6836C5.3125 14.3008 5.85938 13.8867 6.42188 13.4414C6.98438 12.9961 7.54297 12.5156 8.09766 12C8.66016 11.4766 9.17188 10.8906 9.63281 10.2422C10.6797 8.78906 11.3086 7.17578 11.5195 5.40234C9.09766 5.62109 7.48047 5.84375 6.66797 6.07031C5.85547 6.28906 5.24219 6.54688 4.82812 6.84375C4.42188 7.14062 4.21875 7.47266 4.21875 7.83984C4.21875 8.20703 4.24609 8.50781 4.30078 8.74219C4.36328 8.96875 4.42969 9.17578 4.5 9.36328C4.57031 9.55078 4.63281 9.71875 4.6875 9.86719C4.75 10.0156 4.78125 10.1484 4.78125 10.2656C4.78125 10.4766 4.51562 10.707 3.98438 10.957C3.5 11.1836 3.14453 11.2969 2.91797 11.2969C2.69922 11.2969 2.48828 11.2188 2.28516 11.0625C2.08203 10.8984 1.88281 10.6875 1.6875 10.4297C1.21094 9.79688 0.972656 9.18359 0.972656 8.58984C0.972656 7.99609 1.12109 7.49219 1.41797 7.07812C1.71484 6.66406 2.11328 6.30469 2.61328 6C3.12109 5.69531 3.71484 5.44141 4.39453 5.23828C5.07422 5.03516 5.79688 4.86328 6.5625 4.72266C7.32812 4.58203 8.11328 4.46875 8.91797 4.38281C9.73047 4.29688 10.5234 4.22266 11.2969 4.16016C12.0703 4.08984 12.8008 4.02344 13.4883 3.96094C14.1836 3.89844 14.7969 3.82422 15.3281 3.73828C16.4766 3.55078 17.082 3.30078 17.1445 2.98828C17.207 2.67578 17.293 2.38672 17.4023 2.12109C17.5117 1.84766 17.6406 1.60547 17.7891 1.39453C18.1172 0.925781 18.4727 0.691406 18.8555 0.691406C19.2383 0.691406 19.5508 0.882812 19.793 1.26562C20.0273 1.63281 20.1445 2.02344 20.1445 2.4375C20.1445 2.84375 20.0508 3.16797 19.8633 3.41016C19.6758 3.65234 19.4141 3.86719 19.0781 4.05469C18.75 4.23438 18.3555 4.39062 17.8945 4.52344C17.4336 4.65625 16.9336 4.76953 16.3945 4.86328C15.543 5.01172 14.3555 5.15234 12.832 5.28516C12.8477 5.62891 12.8555 5.96094 12.8555 6.28125C12.8555 6.59375 12.8477 6.98438 12.832 7.45312C12.8242 7.91406 12.7891 8.49219 12.7266 9.1875C12.6719 9.88281 12.5977 10.5742 12.5039 11.2617C12.418 11.9492 12.3203 12.5938 12.2109 13.1953C11.9922 14.4453 11.7734 15.3281 11.5547 15.8438C11.3438 16.3594 11.0938 16.8555 10.8047 17.332C10.5156 17.8086 10.1953 18.2617 9.84375 18.6914C9.5 19.1211 9.13281 19.5234 8.74219 19.8984C8.35156 20.2656 7.95312 20.5859 7.54688 20.8594C6.6875 21.4453 5.91016 21.7383 5.21484 21.7383C4.52734 21.7383 3.82422 21.3438 3.10547 20.5547C2.39453 19.7734 2.03906 18.9688 2.03906 18.1406Z" fill="black"/>
<path d="M19.1602 16.3945C19.6133 17.207 20.6406 17.6133 22.2422 17.6133C23.2422 17.6133 24.1836 17.3711 25.0664 16.8867C25.957 16.3945 26.7188 15.6719 27.3516 14.7188C27.7031 14.6953 27.8789 14.8398 27.8789 15.1523C27.8789 15.5039 27.668 16.0117 27.2461 16.6758C26.832 17.332 26.4414 17.8633 26.0742 18.2695C25.7148 18.6758 25.3086 19.0547 24.8555 19.4062C24.4102 19.75 23.9297 20.0469 23.4141 20.2969C22.2969 20.8438 21.1211 21.1172 19.8867 21.1172C17.4023 21.1172 15.7891 20.4297 15.0469 19.0547C14.7812 18.5547 14.6484 17.9844 14.6484 17.3438C14.6484 16.6953 14.7578 16.1016 14.9766 15.5625C15.2031 15.0234 15.5117 14.5117 15.9023 14.0273C16.293 13.5352 16.7578 13.082 17.2969 12.668C17.8359 12.2539 18.4219 11.8984 19.0547 11.6016C20.3984 10.9531 21.7695 10.6289 23.168 10.6289C24.1758 10.6289 24.8672 10.9453 25.2422 11.5781C25.375 11.7969 25.4414 12.0898 25.4414 12.457C25.4414 12.8164 25.3477 13.1719 25.1602 13.5234C24.9805 13.875 24.7344 14.1953 24.4219 14.4844C24.1094 14.7656 23.7461 15.0156 23.332 15.2344C22.918 15.4453 22.4766 15.6289 22.0078 15.7852C21.1797 16.0664 20.2305 16.2695 19.1602 16.3945ZM18.9961 15.3047C19.9961 15.1875 20.8555 14.9102 21.5742 14.4727C22.332 14.0039 22.7109 13.457 22.7109 12.832C22.7109 12.1992 22.4219 11.8828 21.8438 11.8828C21.0938 11.8828 20.4414 12.2422 19.8867 12.9609C19.3555 13.6484 19.0586 14.4297 18.9961 15.3047Z" fill="black"/>
<path d="M37.793 17.2852C38.3711 17.2852 39.0156 17.0234 39.7266 16.5C40.3594 16.0234 40.9141 15.4297 41.3906 14.7188C41.75 14.6875 41.9219 14.8398 41.9062 15.1758C41.8984 15.4414 41.7344 15.8438 41.4141 16.3828C41.1016 16.9219 40.793 17.3906 40.4883 17.7891C40.1836 18.1875 39.8438 18.5781 39.4688 18.9609C39.0938 19.3438 38.6953 19.6875 38.2734 19.9922C37.3281 20.6641 36.4062 21 35.5078 21C34.3594 21 33.5938 20.6562 33.2109 19.9688C33.0781 19.7344 33.0156 19.4531 33.0234 19.125C32.3594 19.9297 31.4141 20.4922 30.1875 20.8125C29.7734 20.9219 29.3281 20.9766 28.8516 20.9766C28.375 20.9766 27.9375 20.9023 27.5391 20.7539C27.1484 20.5977 26.8125 20.3828 26.5312 20.1094C25.9531 19.5391 25.6641 18.7773 25.6641 17.8242C25.6641 16.7461 26.1211 15.6406 27.0352 14.5078C27.9336 13.3828 29.0859 12.4609 30.4922 11.7422C31.9922 10.9844 33.5234 10.6055 35.0859 10.6055C35.7812 10.6055 36.0898 10.9141 36.0117 11.5312C34.2148 11.5312 32.6484 12.0156 31.3125 12.9844C30.7266 13.4141 30.2656 13.8867 29.9297 14.4023C29.6016 14.918 29.4375 15.418 29.4375 15.9023C29.4375 16.8086 29.8203 17.2617 30.5859 17.2617C31.6875 17.2617 32.7969 16.5742 33.9141 15.1992C34.3047 14.7148 34.7578 14.0391 35.2734 13.1719C35.7969 12.2969 36.2227 11.5859 36.5508 11.0391C36.8867 10.4844 37.2266 9.92188 37.5703 9.35156C37.9219 8.77344 38.2578 8.22266 38.5781 7.69922C39.3672 6.41016 39.8555 5.63672 40.043 5.37891C40.3242 4.98828 40.6562 4.79297 41.0391 4.79297C41.4844 4.79297 41.8086 4.95312 42.0117 5.27344C41.1523 6.625 40.3516 8.05859 39.6094 9.57422C38.8672 11.0898 38.3516 12.1953 38.0625 12.8906C37.4062 14.4688 37.0781 15.5977 37.0781 16.2773C37.0781 16.9492 37.3164 17.2852 37.793 17.2852Z" fill="black"/>
<path d="M51.832 17.2852C52.4102 17.2852 53.0547 17.0234 53.7656 16.5C54.3984 16.0234 54.9531 15.4297 55.4297 14.7188C55.7891 14.6875 55.9609 14.8398 55.9453 15.1758C55.9375 15.4414 55.7734 15.8438 55.4531 16.3828C55.1406 16.9219 54.832 17.3906 54.5273 17.7891C54.2227 18.1875 53.8828 18.5781 53.5078 18.9609C53.1328 19.3438 52.7344 19.6875 52.3125 19.9922C51.3672 20.6641 50.4453 21 49.5469 21C48.3984 21 47.6328 20.6562 47.25 19.9688C47.1172 19.7344 47.0547 19.4531 47.0625 19.125C46.3984 19.9297 45.4531 20.4922 44.2266 20.8125C43.8125 20.9219 43.3672 20.9766 42.8906 20.9766C42.4141 20.9766 41.9766 20.9023 41.5781 20.7539C41.1875 20.5977 40.8516 20.3828 40.5703 20.1094C39.9922 19.5391 39.7031 18.7773 39.7031 17.8242C39.7031 16.7461 40.1602 15.6406 41.0742 14.5078C41.9727 13.3828 43.125 12.4609 44.5312 11.7422C46.0312 10.9844 47.5625 10.6055 49.125 10.6055C49.8203 10.6055 50.1289 10.9141 50.0508 11.5312C48.2539 11.5312 46.6875 12.0156 45.3516 12.9844C44.7656 13.4141 44.3047 13.8867 43.9688 14.4023C43.6406 14.918 43.4766 15.418 43.4766 15.9023C43.4766 16.8086 43.8594 17.2617 44.625 17.2617C45.7266 17.2617 46.8359 16.5742 47.9531 15.1992C48.3438 14.7148 48.7969 14.0391 49.3125 13.1719C49.8359 12.2969 50.2617 11.5859 50.5898 11.0391C50.9258 10.4844 51.2656 9.92188 51.6094 9.35156C51.9609 8.77344 52.2969 8.22266 52.6172 7.69922C53.4062 6.41016 53.8945 5.63672 54.082 5.37891C54.3633 4.98828 54.6953 4.79297 55.0781 4.79297C55.5234 4.79297 55.8477 4.95312 56.0508 5.27344C55.1914 6.625 54.3906 8.05859 53.6484 9.57422C52.9062 11.0898 52.3906 12.1953 52.1016 12.8906C51.4453 14.4688 51.1172 15.5977 51.1172 16.2773C51.1172 16.9492 51.3555 17.2852 51.832 17.2852Z" fill="black"/>
<path d="M61.0078 18.7617C59.6328 20.0508 58.3359 20.6953 57.1172 20.6953C56.3203 20.6953 55.6523 20.4531 55.1133 19.9688C54.5352 19.4531 54.2461 18.7227 54.2461 17.7773C54.2461 16.6914 54.625 15.5508 55.3828 14.3555C56.0234 13.3477 56.8047 12.4609 57.7266 11.6953C58.5859 10.9844 59.2305 10.6289 59.6602 10.6289C59.9336 10.6289 60.1562 10.7461 60.3281 10.9805C59.8047 11.3789 59.3438 11.8984 58.9453 12.5391C58.1953 13.7578 57.8203 14.6758 57.8203 15.293C57.8203 16.582 58.1719 17.2266 58.875 17.2266C59.6016 17.2266 60.4648 16.7188 61.4648 15.7031C62.4883 14.6641 63.1992 13.5078 63.5977 12.2344C63.6602 11.8125 63.7109 11.332 63.75 10.793C64.4062 10.5508 64.8711 10.5938 65.1445 10.9219C65.2461 11.0469 65.2969 11.2539 65.2969 11.543C65.2969 11.8242 65.2617 12.1914 65.1914 12.6445C65.1289 13.0977 65.0234 13.6094 64.875 14.1797C64.5781 15.3906 64.1562 16.6562 63.6094 17.9766C64.7266 17.6719 65.8477 16.9453 66.9727 15.7969C67.3164 15.4453 67.6094 15.0859 67.8516 14.7188C68.2031 14.6953 68.3789 14.8398 68.3789 15.1523C68.3789 15.2773 68.2852 15.5664 68.0977 16.0195C67.9102 16.4648 67.6016 16.9844 67.1719 17.5781C66.75 18.1641 66.2812 18.6797 65.7656 19.125C64.7109 20.0312 63.543 20.6094 62.2617 20.8594C60.7539 23.625 59.1797 25.4453 57.5391 26.3203C56.9453 26.6406 56.3789 26.8008 55.8398 26.8008C55.3008 26.8008 54.8008 26.7227 54.3398 26.5664C53.8789 26.4102 53.4648 26.1953 53.0977 25.9219C52.2695 25.2891 51.8555 24.5352 51.8555 23.6602C51.8555 23.3242 51.9688 22.9766 52.1953 22.6172C52.6172 21.9453 53.0703 21.5156 53.5547 21.3281C54.4609 21.9375 55.2344 22.3164 55.875 22.4648C56.1562 22.5273 56.4531 22.5586 56.7656 22.5586C57.0781 22.5586 57.4062 22.4648 57.75 22.2773C58.1016 22.0898 58.4609 21.8281 58.8281 21.4922C59.5938 20.7812 60.3203 19.8711 61.0078 18.7617Z" fill="black"/>
<path d="M67.0078 17.0273C66.5078 16.4023 66.2578 15.8516 66.2578 15.375C66.2578 15.1562 66.3281 14.9805 66.4688 14.8477C66.6172 14.707 66.8047 14.5703 67.0312 14.4375C67.4453 14.1875 67.9883 13.9336 68.6602 13.6758C69.9961 11.2617 71.457 9.16406 73.043 7.38281C74.668 5.55469 75.9375 4.64062 76.8516 4.64062C77.25 4.64062 77.582 4.82812 77.8477 5.20312C78.1133 5.57031 78.2461 6.01172 78.2461 6.52734C78.2461 7.04297 78.1641 7.53125 78 7.99219C77.8359 8.44531 77.6094 8.89062 77.3203 9.32812C77.0312 9.75781 76.6836 10.1758 76.2773 10.582C75.8789 10.9805 75.4414 11.3438 74.9648 11.6719C73.9727 12.3672 72.9297 12.8555 71.8359 13.1367C72.7109 13.4492 73.2578 14.3828 73.4766 15.9375C73.5312 16.3672 73.5586 16.7148 73.5586 16.9805C73.5586 17.2383 73.5586 17.3945 73.5586 17.4492C73.7539 17.5039 74 17.5312 74.2969 17.5312C74.6016 17.5312 74.9414 17.4531 75.3164 17.2969C75.6914 17.1406 76.0547 16.9336 76.4062 16.6758C77.0625 16.1836 77.6602 15.5312 78.1992 14.7188C78.5508 14.6953 78.7266 14.8398 78.7266 15.1523C78.7266 15.3789 78.5781 15.7734 78.2812 16.3359C77.9844 16.8984 77.707 17.3711 77.4492 17.7539C77.1992 18.1289 76.9219 18.4961 76.6172 18.8555C76.3203 19.2148 76.0078 19.5352 75.6797 19.8164C74.9453 20.4336 74.2305 20.7422 73.5352 20.7422C73.418 20.7422 73.2852 20.7305 73.1367 20.707C72.7305 22.4336 72.1094 23.8594 71.2734 24.9844C70.3281 26.2422 69.2773 26.8711 68.1211 26.8711C67.2617 26.8711 66.6172 26.4141 66.1875 25.5C65.8125 24.7031 65.625 23.6328 65.625 22.2891C65.625 20.9453 66.0859 19.1914 67.0078 17.0273ZM76.6172 7.01953C76.6172 6.57422 76.4844 6.35156 76.2188 6.35156C75.9609 6.35156 75.6758 6.48828 75.3633 6.76172C75.0508 7.03516 74.7266 7.41406 74.3906 7.89844C73.6875 8.89844 73 10.1797 72.3281 11.7422C73.4297 11.4141 74.418 10.7734 75.293 9.82031C76.1758 8.85938 76.6172 7.92578 76.6172 7.01953ZM71.3555 14.3203L70.9805 15.4922C71.293 15.9609 71.6953 16.3867 72.1875 16.7695C72.1484 15.3867 71.8711 14.5703 71.3555 14.3203ZM70.1484 19.5C70.0781 20.125 70.043 20.7266 70.043 21.3047C70.043 21.8828 70.0664 22.3398 70.1133 22.6758C70.168 23.0195 70.2891 23.1914 70.4766 23.1914C70.7188 23.1914 70.9688 22.9102 71.2266 22.3477C71.4531 21.8789 71.6602 21.2031 71.8477 20.3203C71.3008 20.1016 70.7344 19.8281 70.1484 19.5Z" fill="black"/>
<path d="M83.7656 18.7617C82.3906 20.0508 81.0938 20.6953 79.875 20.6953C79.0781 20.6953 78.4102 20.4531 77.8711 19.9688C77.293 19.4531 77.0039 18.7227 77.0039 17.7773C77.0039 16.6914 77.3828 15.5508 78.1406 14.3555C78.7812 13.3477 79.5625 12.4609 80.4844 11.6953C81.3438 10.9844 81.9883 10.6289 82.418 10.6289C82.6914 10.6289 82.9141 10.7461 83.0859 10.9805C82.5625 11.3789 82.1016 11.8984 81.7031 12.5391C80.9531 13.7578 80.5781 14.6758 80.5781 15.293C80.5781 16.582 80.9297 17.2266 81.6328 17.2266C82.3594 17.2266 83.2227 16.7188 84.2227 15.7031C85.2461 14.6641 85.957 13.5078 86.3555 12.2344C86.418 11.8125 86.4688 11.332 86.5078 10.793C87.1641 10.5508 87.6289 10.5938 87.9023 10.9219C88.0039 11.0469 88.0547 11.2539 88.0547 11.543C88.0547 11.8242 88.0195 12.1914 87.9492 12.6445C87.8867 13.0977 87.7812 13.6094 87.6328 14.1797C87.3359 15.3906 86.9141 16.6562 86.3672 17.9766C87.4844 17.6719 88.6055 16.9453 89.7305 15.7969C90.0742 15.4453 90.3672 15.0859 90.6094 14.7188C90.9609 14.6953 91.1367 14.8398 91.1367 15.1523C91.1367 15.2773 91.043 15.5664 90.8555 16.0195C90.668 16.4648 90.3594 16.9844 89.9297 17.5781C89.5078 18.1641 89.0391 18.6797 88.5234 19.125C87.4688 20.0312 86.3008 20.6094 85.0195 20.8594C83.5117 23.625 81.9375 25.4453 80.2969 26.3203C79.7031 26.6406 79.1367 26.8008 78.5977 26.8008C78.0586 26.8008 77.5586 26.7227 77.0977 26.5664C76.6367 26.4102 76.2227 26.1953 75.8555 25.9219C75.0273 25.2891 74.6133 24.5352 74.6133 23.6602C74.6133 23.3242 74.7266 22.9766 74.9531 22.6172C75.375 21.9453 75.8281 21.5156 76.3125 21.3281C77.2188 21.9375 77.9922 22.3164 78.6328 22.4648C78.9141 22.5273 79.2109 22.5586 79.5234 22.5586C79.8359 22.5586 80.1641 22.4648 80.5078 22.2773C80.8594 22.0898 81.2188 21.8281 81.5859 21.4922C82.3516 20.7812 83.0781 19.8711 83.7656 18.7617Z" fill="black"/>
</svg>
