<svg width="19" height="27" viewBox="0 0 19 27" fill="none" xmlns="http://www.w3.org/2000/svg">
<path d="M7.66786 24.3C7.46429 23.715 7.20417 23.175 6.8875 22.68C6.57083 22.185 6.19762 21.7238 5.76786 21.2963C5.3381 20.8688 4.8744 20.4919 4.37679 20.1656C3.87917 19.8394 3.33631 19.575 2.74821 19.3725C2.79345 20.025 2.95179 20.6325 3.22321 21.195C3.49464 21.7575 3.85655 22.2638 4.30893 22.7138C4.76131 23.1638 5.27024 23.5294 5.83571 23.8106C6.40119 24.0919 7.01191 24.255 7.66786 24.3ZM11.3321 24.3C11.9881 24.2325 12.5988 24.0638 13.1643 23.7938C13.7298 23.5238 14.2387 23.1638 14.6911 22.7138C15.1435 22.2638 15.5054 21.7575 15.7768 21.195C16.0482 20.6325 16.2179 20.025 16.2857 19.3725C15.6976 19.575 15.1491 19.8338 14.6402 20.1488C14.1313 20.4638 13.6619 20.835 13.2321 21.2625C12.8024 21.69 12.4292 22.1569 12.1125 22.6631C11.7958 23.1694 11.5357 23.715 11.3321 24.3ZM9.5 12.15C10.9929 12.15 12.2708 11.6213 13.3339 10.5638C14.397 9.50625 14.9286 8.235 14.9286 6.75V5.13L12.5536 7.12125L9.5 3.4425L6.44643 7.12125L4.07143 5.13V6.75C4.07143 8.235 4.60298 9.50625 5.66607 10.5638C6.72917 11.6213 8.00714 12.15 9.5 12.15ZM8.14286 27C5.88095 27 3.95833 26.2125 2.375 24.6375C0.791667 23.0625 0 21.15 0 18.9V16.2C1.60595 16.1775 3.12143 16.5037 4.54643 17.1788C5.97143 17.8538 7.17024 18.765 8.14286 19.9125V14.7488C6.19762 14.4338 4.58036 13.5281 3.29107 12.0319C2.00179 10.5356 1.35714 8.775 1.35714 6.75V2.16C1.35714 1.575 1.61726 1.16438 2.1375 0.928125C2.65774 0.691875 3.14405 0.765 3.59643 1.1475L6.10714 3.3075L8.44821 0.4725C8.71964 0.1575 9.07024 0 9.5 0C9.92976 0 10.2804 0.1575 10.5518 0.4725L12.8929 3.3075L15.4036 1.1475C15.856 0.765 16.3423 0.691875 16.8625 0.928125C17.3827 1.16438 17.6429 1.575 17.6429 2.16V6.75C17.6429 8.775 16.9982 10.5356 15.7089 12.0319C14.4196 13.5281 12.8024 14.4338 10.8571 14.7488V19.9125C11.8298 18.765 13.0286 17.8538 14.4536 17.1788C15.8786 16.5037 17.394 16.1775 19 16.2V18.9C19 21.15 18.2083 23.0625 16.625 24.6375C15.0417 26.2125 13.119 27 10.8571 27H8.14286Z" fill="black"/>
</svg>
